# xmcd
#
# Track frame offsets:
#	150
#	9538
#	42383
#	77136
#	95307
#	105857
#	108170
#	171704
#	195837
#	218379
#	265667
#
# Disc length: 4353 seconds
#
# Revision: 1
# Processed by: cddbd v1.5.2PL0 Copyright (c) Steve Scherf et al.
# Submitted via: audiograbber 1.83.01
#
DISCID=7d10ff0b
DTITLE=Grateful Dead - 69-02-06 Kiel Auditorium, St Louis MO
DYEAR=1900
DGENRE=
TTITLE0=Cryptical Envelopment
TTITLE1=The Other One
TTITLE2=Cryptical Envelopment
TTITLE3=Feedback
TTITLE4=We Bid You Goodnight
TTITLE5=Intro
TTITLE6=Dark Star
TTITLE7=St Stephen
TTITLE8=William Tell Bridge
TTITLE9=The Eleven
TTITLE10=Turn On Your Lovelight
EXTD=
EXTT0=
EXTT1=
EXTT2=
EXTT3=
EXTT4=
EXTT5=
EXTT6=
EXTT7=
EXTT8=
EXTT9=
EXTT10=
PLAYORDER=
